<svg xmlns="http://www.w3.org/2000/svg" xmlns:xlink="http://www.w3.org/1999/xlink" version="1.1" id="Capa_1" x="0px" y="0px" viewBox="0 0 383.516 383.516" style="enable-background:new 0 0 383.516 383.516;" xml:space="preserve" width="512px" height="512px"><g><g>
	<g>
		<path d="M225.098,36.336c-11.04-12.56-21.08-24.56-28.88-34.12c-0.281-0.357-0.603-0.679-0.96-0.96    c-2.444-1.967-6.019-1.581-7.986,0.863c-0.005,0.006-0.009,0.011-0.014,0.017c-8,9.76-17.88,21.4-28.92,34.2    c-48.52,56.28-115.64,134-115.64,198.12c0,82.324,66.736,149.06,149.06,149.06s149.06-66.736,149.06-149.06    C340.818,170.456,273.698,92.616,225.098,36.336z M289.098,331.776c-53.764,53.77-140.938,53.775-194.709,0.011    c-25.816-25.813-40.323-60.823-40.331-97.331c0-60,65.48-135.8,112.92-190.68c9.04-10.48,17.44-20,24.76-29.12    c7.32,9.12,15.72,18.64,24.76,29.12c47.24,54.88,112.92,130.72,112.92,190.68C329.459,270.968,314.948,305.991,289.098,331.776z" data-original="#000000" class="active-path" data-old_color="#000000" fill="#FFFFFF"/>
	</g>
</g><g>
	<g>
		<path d="M192.378,323.256v0.04c-47.695,0.022-86.378-38.625-86.4-86.32c0-0.027,0-0.053,0-0.08c0-3.148-2.552-5.7-5.7-5.7    s-5.7,2.552-5.7,5.7c-0.044,53.947,43.653,97.716,97.6,97.76c0.067,0,0.133,0,0.2,0c3.148,0,5.7-2.552,5.7-5.7    S195.526,323.256,192.378,323.256z" data-original="#000000" class="active-path" data-old_color="#000000" fill="#FFFFFF"/>
	</g>
</g></g> </svg>